<svg width="25" height="29" viewBox="0 0 25 29" fill="none" xmlns="http://www.w3.org/2000/svg">
<g clip-path="url(#clip0_16_1899)">
<path d="M12.5056 7.86823C8.95651 7.86823 6.09378 10.731 6.09378 14.2801C6.09378 17.8292 8.95651 20.6919 12.5056 20.6919C16.0547 20.6919 18.9174 17.8292 18.9174 14.2801C18.9174 10.731 16.0547 7.86823 12.5056 7.86823ZM12.5056 18.4486C10.2121 18.4486 8.33709 16.5792 8.33709 14.2801C8.33709 11.981 10.2065 10.1115 12.5056 10.1115C14.8047 10.1115 16.6741 11.981 16.6741 14.2801C16.6741 16.5792 14.7991 18.4486 12.5056 18.4486ZM20.6753 7.60596C20.6753 8.43743 20.0056 9.10149 19.1797 9.10149C18.3482 9.10149 17.6842 8.43185 17.6842 7.60596C17.6842 6.78006 18.3538 6.11042 19.1797 6.11042C20.0056 6.11042 20.6753 6.78006 20.6753 7.60596ZM24.9219 9.12381C24.827 7.12047 24.3695 5.34591 22.9018 3.88386C21.4398 2.42181 19.6652 1.96422 17.6619 1.86377C15.5971 1.74658 9.40852 1.74658 7.34378 1.86377C5.34602 1.95864 3.57146 2.41622 2.10383 3.87828C0.636196 5.34033 0.184187 7.11489 0.0837402 9.11823C-0.0334473 11.183 -0.0334473 17.3716 0.0837402 19.4363C0.178606 21.4397 0.636196 23.2142 2.10383 24.6763C3.57146 26.1383 5.34044 26.5959 7.34378 26.6964C9.40852 26.8135 15.5971 26.8135 17.6619 26.6964C19.6652 26.6015 21.4398 26.1439 22.9018 24.6763C24.3639 23.2142 24.8215 21.4397 24.9219 19.4363C25.0391 17.3716 25.0391 11.1885 24.9219 9.12381ZM22.2545 21.6517C21.8192 22.7455 20.9766 23.5881 19.8773 24.0289C18.2311 24.6818 14.3248 24.5312 12.5056 24.5312C10.6864 24.5312 6.77459 24.6763 5.13396 24.0289C4.04021 23.5937 3.19758 22.751 2.75673 21.6517C2.10383 20.0055 2.2545 16.0993 2.2545 14.2801C2.2545 12.4609 2.10941 8.54904 2.75673 6.90841C3.192 5.81466 4.03463 4.97203 5.13396 4.53118C6.78017 3.87828 10.6864 4.02895 12.5056 4.02895C14.3248 4.02895 18.2366 3.88386 19.8773 4.53118C20.971 4.96645 21.8137 5.80908 22.2545 6.90841C22.9074 8.55462 22.7567 12.4609 22.7567 14.2801C22.7567 16.0993 22.9074 20.0111 22.2545 21.6517Z" fill="white"/>
</g>
<defs>
<clipPath id="clip0_16_1899">
<rect width="25" height="28.5714" fill="white"/>
</clipPath>
</defs>
</svg>
