<svg width="26" height="29" viewBox="0 0 26 29" fill="none" xmlns="http://www.w3.org/2000/svg">
<g clip-path="url(#clip0_16_1903)">
<path d="M21.6306 5.41846C19.2924 3.07471 16.1786 1.78564 12.8694 1.78564C6.03906 1.78564 0.481027 7.34368 0.481027 14.174C0.481027 16.356 1.05022 18.4877 2.13281 20.3682L0.375 26.7856L6.94308 25.0613C8.75112 26.049 10.7879 26.568 12.8638 26.568H12.8694C19.6942 26.568 25.375 21.01 25.375 14.1796C25.375 10.8705 23.9688 7.76221 21.6306 5.41846ZM12.8694 24.481C11.0167 24.481 9.20312 23.9843 7.62388 23.0468L7.25 22.8236L3.35491 23.8448L4.39286 20.0446L4.14732 19.6539C3.11496 18.0133 2.57366 16.1216 2.57366 14.174C2.57366 8.49881 7.1942 3.87828 12.875 3.87828C15.6261 3.87828 18.2098 4.94971 20.1518 6.89725C22.0938 8.8448 23.2879 11.4285 23.2824 14.1796C23.2824 19.8604 18.5446 24.481 12.8694 24.481ZM18.5167 16.7689C18.2098 16.6127 16.6864 15.8649 16.4018 15.7644C16.1172 15.6584 15.9107 15.6082 15.7042 15.9207C15.4978 16.2332 14.9062 16.9252 14.7221 17.1372C14.5435 17.3437 14.3594 17.3716 14.0525 17.2153C12.2333 16.3057 11.0391 15.5914 9.83929 13.5323C9.52121 12.9854 10.1574 13.0245 10.7489 11.8414C10.8493 11.635 10.7991 11.4564 10.721 11.3002C10.6429 11.1439 10.0234 9.62047 9.76674 9.00105C9.51562 8.39837 9.25893 8.48207 9.0692 8.47091C8.89062 8.45975 8.68415 8.45975 8.47768 8.45975C8.2712 8.45975 7.93638 8.53788 7.65179 8.8448C7.36719 9.1573 6.5692 9.90506 6.5692 11.4285C6.5692 12.9519 7.67969 14.4252 7.83036 14.6316C7.98661 14.8381 10.0123 17.9631 13.1205 19.308C15.0848 20.1562 15.8549 20.2287 16.8371 20.0836C17.4342 19.9943 18.6674 19.3359 18.9241 18.6104C19.1808 17.885 19.1808 17.2656 19.1027 17.1372C19.0301 16.9977 18.8237 16.9196 18.5167 16.7689Z" fill="white"/>
</g>
<defs>
<clipPath id="clip0_16_1903">
<rect width="25" height="28.5714" fill="white" transform="translate(0.375)"/>
</clipPath>
</defs>
</svg>
